<svg width="33" height="41" viewBox="0 0 33 41" fill="none" xmlns="http://www.w3.org/2000/svg">
<path fill-rule="evenodd" clip-rule="evenodd" d="M19.7078 6.08305C19.8215 6.05058 19.9027 6.08305 19.9514 6.21292C19.9676 6.26162 20.0163 6.27785 20.065 6.29409C20.1949 6.37526 20.3247 6.39149 20.4708 6.40772C20.552 6.40772 20.5845 6.48889 20.6007 6.57006C20.6169 6.66747 20.6007 6.76487 20.552 6.84604C20.5195 6.91097 20.4708 6.97591 20.4221 7.04084C20.5033 7.05708 20.5358 7.00838 20.5682 6.95967C20.6007 6.91097 20.6169 6.84604 20.6494 6.79734C20.7793 6.60253 20.9416 6.52136 21.1527 6.61876C21.3637 6.71617 21.5747 6.79734 21.7695 6.87851C21.8507 6.91097 21.9319 6.92721 21.9806 7.02461C21.9968 7.07331 22.0455 7.05708 22.078 7.05708C22.1267 7.04084 22.1754 7.04084 22.2241 7.08954C22.3377 7.23565 22.4514 7.39799 22.4351 7.62526C22.5001 7.64149 22.5488 7.60903 22.5812 7.57656C22.6786 7.47916 22.776 7.49539 22.8897 7.54409C23.0682 7.60903 23.2468 7.67396 23.4254 7.7389C23.6851 7.82007 23.9449 7.7876 24.2046 7.7876C24.3832 7.7876 24.5455 7.8363 24.7079 7.94994C24.9189 8.09604 25.1137 8.25838 25.276 8.45319C25.4059 8.59929 25.5683 8.68046 25.6981 8.81033C25.7631 8.87527 25.8605 8.87527 25.9416 8.87527C26.0228 8.87527 26.0877 8.8915 26.1689 8.87527C26.3962 8.85903 26.5098 9.00514 26.5748 9.23241C26.7371 9.71943 26.7209 10.2227 26.591 10.7097C26.5423 10.872 26.4449 11.0019 26.3637 11.1318C26.2663 11.2779 26.1364 11.4077 26.0553 11.5701C26.0228 11.6188 25.9741 11.6675 25.9416 11.7C25.6981 11.8785 25.5033 12.1058 25.4059 12.4305C25.3735 12.5603 25.3085 12.6577 25.2273 12.7714C25.1786 12.8526 25.1137 12.9337 25.0163 12.9337C24.9027 12.9337 24.8702 13.0149 24.854 13.1123C24.8053 13.437 24.789 13.7779 24.8215 14.1026C24.8377 14.3136 24.8215 14.5084 24.789 14.7194C24.7728 14.8331 24.7403 14.9305 24.7403 15.0441C24.7403 15.2389 24.7079 15.4175 24.578 15.5636C24.5131 15.661 24.4968 15.7746 24.4968 15.9045C24.4968 16.1318 24.4806 16.3428 24.3183 16.5052C24.2858 16.5376 24.2696 16.6026 24.2533 16.6513C24.2046 16.7811 24.1397 16.911 24.0585 17.0246C23.9611 17.1383 23.8962 17.2682 23.8962 17.4305C23.8962 17.6091 23.815 17.7227 23.6527 17.7876C23.5553 17.8201 23.4741 17.885 23.4416 18.0149C23.4254 18.0961 23.3605 18.1448 23.2793 18.161C23.1981 18.161 23.1332 18.2097 23.052 18.1935C22.8247 18.1448 22.5812 18.2097 22.354 18.226C22.3377 18.226 22.3053 18.226 22.3053 18.226C22.2566 18.4045 22.0618 18.3721 21.9806 18.4857C21.9319 18.5506 21.8345 18.5831 21.7533 18.5993C21.6072 18.6318 21.4611 18.6967 21.3475 18.7941C21.104 19.0214 20.8442 19.2324 20.6332 19.4922C20.4871 19.6708 20.4221 19.8656 20.4546 20.0928C20.4708 20.2065 20.4546 20.3201 20.5195 20.4338C20.5358 20.45 20.5358 20.4987 20.5195 20.5149C20.4384 20.6448 20.4708 20.7747 20.4546 20.9208C20.4384 21.1318 20.3734 21.3104 20.1949 21.4078C20.1137 21.4565 20.065 21.5377 20.0163 21.6188C19.8864 21.8299 19.7565 22.0409 19.6916 22.3169C19.6591 22.4792 19.5455 22.5766 19.4806 22.7227C19.4481 22.7877 19.3994 22.8526 19.3669 22.9338C19.3182 23.0312 19.2695 23.0799 19.1884 23.1448C19.1072 23.2097 19.026 23.2747 18.9449 23.3396C18.8312 23.437 18.7663 23.5506 18.7176 23.713C18.6689 23.9078 18.5715 24.0701 18.4416 24.1838C18.3442 24.2812 18.263 24.3948 18.1981 24.5247C18.1007 24.7357 17.9708 24.9143 17.776 25.0279C17.6786 25.0766 17.5974 25.1091 17.4838 25.0604C17.4026 25.0279 17.3052 25.0279 17.2241 25.0279C17.013 25.0604 16.8345 24.9955 16.6559 24.8818C16.5747 24.8331 16.4935 24.8007 16.4124 24.8007C16.2987 24.7844 16.1851 24.7682 16.1039 24.6383C16.0877 24.6221 16.0715 24.6058 16.039 24.6058C16.0065 24.6221 16.0065 24.6545 16.0065 24.687C16.0228 24.7844 16.0715 24.8331 16.1364 24.8656C16.25 24.9468 16.3637 25.0279 16.4611 25.1416C16.5422 25.239 16.5747 25.3364 16.526 25.4662C16.4611 25.6935 16.4935 25.7747 16.6884 25.8559C16.7695 25.8883 16.7858 25.937 16.802 26.0182C16.8182 26.1643 16.802 26.2942 16.7208 26.4078C16.6721 26.489 16.6234 26.5864 16.5585 26.6513C16.4935 26.7325 16.4448 26.8299 16.4124 26.9435C16.3799 27.0734 16.315 27.1708 16.2013 27.2033C15.9091 27.3169 15.6332 27.4468 15.3409 27.4792C15.1948 27.4955 15.065 27.5442 14.9189 27.5766C14.6916 27.6253 14.4968 27.5766 14.2695 27.5279C14.2533 27.6091 14.2857 27.6903 14.3182 27.7552C14.3832 27.8688 14.3832 27.9987 14.3182 28.1124C14.237 28.2422 14.237 28.3721 14.2533 28.502C14.2857 28.7617 14.2533 28.8104 14.0422 28.924C13.815 29.0539 13.5877 29.0377 13.3767 28.9078C13.2955 28.8591 13.1981 28.8266 13.1007 28.7779C13.0357 28.7455 13.0033 28.7779 13.0033 28.8429C12.987 28.9078 13.0033 28.9727 13.0195 29.0539C13.052 29.1676 13.0682 29.265 13.0682 29.3786C13.052 29.5247 13.1007 29.6383 13.2305 29.687C13.2793 29.7033 13.2955 29.7682 13.3442 29.7682C13.3929 29.752 13.3442 29.6708 13.3929 29.6546C13.4578 29.6383 13.5228 29.6059 13.5877 29.5896C13.6364 29.5734 13.6689 29.6383 13.6851 29.6708C13.7338 29.7682 13.7338 29.8818 13.7176 29.9955C13.7013 30.0929 13.6202 30.1253 13.539 30.1578C13.4741 30.174 13.4091 30.1416 13.3604 30.0766C13.2468 29.9143 13.2468 29.9143 13.1169 30.0604C13.1656 30.1416 13.263 30.1253 13.328 30.1578C13.3929 30.1903 13.4091 30.239 13.3442 30.2877C13.3117 30.3202 13.263 30.3364 13.2305 30.3526C13.052 30.4663 12.9708 30.6286 13.0033 30.8721C13.0195 31.0507 13.0195 31.2292 12.8734 31.3591C12.8247 31.3916 12.8409 31.4565 12.8409 31.5052C12.8409 31.6513 12.8247 31.6676 12.7111 31.6676C12.3215 31.6838 12.1104 31.9111 11.9643 32.2844C11.9156 32.3819 11.9318 32.4793 11.9805 32.5767C12.0617 32.7552 12.1916 32.8851 12.3215 32.9987C12.3864 33.0637 12.4838 33.0799 12.5812 33.0799C12.7273 33.0799 12.7922 33.1448 12.7922 33.3234C12.7922 33.4695 12.7273 33.6156 12.7111 33.7617C12.7111 33.8104 12.6624 33.8754 12.6137 33.9078C12.3864 34.0702 12.2078 34.2812 12.013 34.476C11.9318 34.5734 11.8831 34.6708 11.8994 34.8007C11.9156 34.9468 11.8669 35.0929 11.8182 35.2228C11.7857 35.3202 11.7208 35.3689 11.6234 35.4013C11.3961 35.4825 11.25 35.6449 11.2013 35.9046C11.1851 35.9858 11.1851 36.0669 11.2176 36.1481C11.2663 36.2617 11.2825 36.3754 11.2825 36.5052C11.2987 36.6838 11.3799 36.8299 11.4773 36.9598C11.5098 37.0247 11.5909 37.0734 11.5422 37.1546C11.4935 37.2195 11.4124 37.1871 11.3474 37.1871C11.2987 37.1708 11.25 37.1384 11.1851 37.1221C11.1526 37.1059 11.1039 37.1221 11.0877 37.1546C11.0552 37.2033 11.0877 37.2358 11.1039 37.2682C11.1364 37.3332 11.2013 37.3494 11.2663 37.3332C11.3474 37.3007 11.3961 37.3332 11.4448 37.3981C11.526 37.4955 11.5747 37.6091 11.6396 37.7228C11.6559 37.7715 11.6721 37.8364 11.5909 37.8364C11.5422 37.8364 11.5422 37.8851 11.5747 37.9014C11.6559 37.9825 11.6883 38.0799 11.737 38.1773C11.802 38.3234 11.9318 38.4208 12.0455 38.5182C12.2078 38.6481 12.3702 38.778 12.5325 38.9403C12.6299 39.0377 12.7435 39.0864 12.8734 39.0864C12.9383 39.0864 13.0195 39.0702 13.0357 39.1838C13.052 39.2812 12.987 39.3949 12.8896 39.3949C12.7273 39.3949 12.5812 39.4436 12.4351 39.4598C12.3702 39.476 12.3215 39.5085 12.2728 39.5247C12.1916 39.5572 12.2403 39.5734 12.2565 39.6059C12.289 39.6871 12.2728 39.752 12.2078 39.7358C12.013 39.6871 11.802 39.6871 11.6396 39.5247C11.6559 39.6546 11.7046 39.7682 11.7695 39.8819C11.8182 39.8819 11.8182 39.7845 11.8507 39.8007C11.8831 39.8169 11.9318 39.8332 11.9643 39.8656C12.0455 39.9306 12.0779 40.0117 12.1266 40.1092C12.1429 40.1416 12.1429 40.1903 12.0942 40.2228C12.0617 40.2553 12.013 40.2877 11.9805 40.2553C11.9481 40.2066 11.8831 40.2228 11.8507 40.2066C11.8182 40.1903 11.7533 40.2066 11.7533 40.1416C11.7533 40.0767 11.8344 40.1254 11.8507 40.0442C11.737 40.0767 11.6559 40.0605 11.6072 39.9468C11.6072 39.9306 11.5747 39.9143 11.5585 39.9143C11.4935 39.8819 11.4286 39.9306 11.3637 39.8656C11.315 39.8169 11.2987 39.7358 11.2338 39.7195C11.2013 39.752 11.2176 39.7682 11.2338 39.8007C11.25 39.8494 11.2987 39.8819 11.25 39.9306C11.2013 39.9793 11.1364 39.963 11.1039 39.9143C11.0227 39.8332 10.9578 39.7358 10.8442 39.6871C10.7955 39.6708 10.8117 39.6059 10.8279 39.5572C10.8604 39.5085 10.8604 39.4273 10.8117 39.4111C10.6818 39.3624 10.552 39.2812 10.4059 39.3299C10.3896 39.3462 10.3734 39.3786 10.3572 39.3949L10.3409 39.4111C10.3085 39.4111 10.276 39.3949 10.2273 39.3949C10.1299 39.3949 10.1137 39.3299 10.1137 39.2488C10.1624 39.2488 10.2273 39.2325 10.2922 39.2325C10.1948 39.1514 10.1137 39.0864 10.1948 38.9566C10.2273 38.9078 10.1461 38.8104 10.0974 38.8267C9.98378 38.8916 9.91885 38.7942 9.78898 38.7455C9.83768 38.8429 9.90261 38.9241 9.77274 38.9728C9.69157 39.0053 9.6104 38.9403 9.59417 38.8267C9.57794 38.6806 9.44807 38.7293 9.38313 38.6806C9.35066 38.6643 9.30196 38.6968 9.26949 38.6806C9.20456 38.6643 9.15586 38.6319 9.22079 38.5507C9.25326 38.502 9.28573 38.4695 9.23703 38.4208C9.17209 38.3559 9.18833 38.226 9.07469 38.2098C9.02599 38.2098 8.99352 38.1936 8.97729 38.1286C8.97729 38.0637 9.00975 38.0475 9.05845 38.0475C9.09092 38.0312 9.12339 38.015 9.10716 37.9825C9.09092 37.9338 9.05845 37.9501 9.02599 37.9338C8.96105 37.9338 8.91235 38.015 8.84741 37.9825C8.76625 37.9501 8.84742 37.8526 8.78248 37.8039C8.68508 37.739 8.63638 37.6416 8.65261 37.4793C8.81495 37.6254 8.99352 37.6903 9.15586 37.8039C9.25326 37.8689 9.3182 37.8851 9.4156 37.7877C9.33443 37.7877 9.26949 37.7552 9.23703 37.6741C9.18833 37.5929 9.15586 37.4955 9.04222 37.463C8.96105 37.4468 8.96105 37.3494 8.97729 37.2682C8.97729 37.2358 9.00975 37.1871 8.94482 37.2033C8.84742 37.2195 8.83118 37.1221 8.78248 37.0734C8.71754 37.1221 8.75001 37.2195 8.70131 37.2682C8.5065 37.1384 8.44157 36.9436 8.5065 36.7325C8.52274 36.6676 8.55521 36.6189 8.63638 36.6026C8.71754 36.5864 8.81495 36.6513 8.87988 36.5215C8.89612 36.489 8.92858 36.5215 8.96105 36.5539C8.99352 36.6189 9.04222 36.6838 9.04222 36.765C9.04222 36.8624 9.10716 36.9111 9.12339 36.9923C9.12339 37.0247 9.15586 37.0085 9.17209 36.9923C9.18833 36.976 9.22079 36.976 9.20456 36.9436C9.12339 36.8462 9.18833 36.7 9.05845 36.6189C9.00975 36.5864 8.99352 36.5377 8.97729 36.4728C8.96105 36.4241 8.94482 36.4241 8.89612 36.4078C8.79871 36.3916 8.76625 36.3267 8.81495 36.2455C8.87988 36.1319 8.86365 36.0507 8.81495 35.9371C8.78248 36.0669 8.73378 36.1806 8.71754 36.3104C8.70131 36.3916 8.66884 36.4403 8.60391 36.4241C8.5065 36.4078 8.4578 36.4403 8.42534 36.5215C8.4091 36.5377 8.37663 36.5539 8.3604 36.5377C8.32793 36.5215 8.32793 36.489 8.32793 36.4565C8.34417 36.3267 8.37663 36.1968 8.47404 36.1156C8.53897 36.0669 8.57144 36.0345 8.53897 35.9371C8.52274 35.8721 8.52274 35.8072 8.58767 35.7585C8.66884 35.6936 8.57144 35.5961 8.63638 35.515C8.70131 35.4338 8.65261 35.3526 8.57144 35.2877C8.52274 35.239 8.52274 35.1741 8.52274 35.0929C8.52274 34.9793 8.5065 34.8981 8.42534 34.8332C8.3604 34.7845 8.32793 34.7033 8.4091 34.6059C8.3117 34.6221 8.27923 34.752 8.19806 34.6708C8.13313 34.6059 8.13313 34.5085 8.14936 34.4273C8.18183 34.3299 8.2143 34.2163 8.24676 34.1189C8.27923 34.0377 8.29546 33.989 8.263 33.9241C8.23053 33.8754 8.23053 33.8104 8.27923 33.7455C8.3117 33.713 8.32793 33.6806 8.32793 33.6319C8.32793 33.5182 8.37663 33.4857 8.4578 33.4857C8.53897 33.4857 8.60391 33.5832 8.58767 33.6806C8.57144 33.778 8.60391 33.8591 8.60391 33.9403C8.60391 33.989 8.62014 34.0215 8.63638 34.0539C8.68508 34.1189 8.71754 34.1838 8.68508 34.2812C8.66884 34.3137 8.70131 34.3624 8.75001 34.3786C8.79871 34.2812 8.79871 34.1838 8.75001 34.0864C8.71754 34.0052 8.68508 33.9403 8.68508 33.8429C8.68508 33.7293 8.70131 33.6968 8.81495 33.713C8.87988 33.713 8.94482 33.7455 9.02599 33.6968C8.99352 33.5994 8.89612 33.6156 8.84741 33.5994C8.79871 33.5832 8.75001 33.5994 8.70131 33.5832C8.65261 33.5669 8.62014 33.5182 8.65261 33.4695C8.71754 33.3721 8.70131 33.2422 8.79871 33.1611C8.84742 33.1286 8.86365 33.0799 8.87988 33.015C8.89612 32.9338 8.83118 32.8202 8.76625 32.8526C8.62014 32.9338 8.53897 32.8364 8.44157 32.7715C8.37663 32.7877 8.4091 32.8364 8.4091 32.8851C8.4091 32.95 8.37663 32.9987 8.3117 32.9825C8.24676 32.9825 8.23053 32.9176 8.23053 32.8689C8.23053 32.7877 8.24676 32.7065 8.29546 32.6416C8.37663 32.5604 8.42534 32.463 8.52274 32.4143C8.53897 32.3494 8.47404 32.3494 8.47404 32.3169C8.44157 32.2357 8.47404 32.1708 8.55521 32.1708C8.63638 32.1546 8.71754 32.1708 8.84741 32.1708C8.73378 32.1221 8.63638 32.1221 8.57144 32.0572C8.52274 32.0247 8.52274 31.976 8.58767 31.9435C8.66884 31.9273 8.66884 31.8461 8.70131 31.7812C8.81495 31.5864 8.81495 31.4403 8.60391 31.3267C8.55521 31.3104 8.55521 31.2292 8.60391 31.1968C8.68508 31.1643 8.71754 31.0831 8.75001 31.002C8.78248 30.8559 8.78248 30.8559 8.92858 30.8721C8.96105 30.8721 8.97729 30.8721 8.99352 30.8721C9.00975 30.8234 8.97729 30.8234 8.96105 30.8234C8.91235 30.8072 8.84741 30.7747 8.89612 30.7098C8.92858 30.6448 9.00975 30.6286 9.05845 30.6773C9.12339 30.7422 9.17209 30.8072 9.15586 30.9046C9.13962 31.0344 9.13962 31.1481 9.17209 31.278C9.18833 31.3754 9.15586 31.4403 9.10716 31.5052C9.07469 31.5539 9.04222 31.5702 9.10716 31.6351C9.13962 31.6676 9.13962 31.7163 9.12339 31.765C9.10716 31.8137 9.12339 31.8299 9.15586 31.8299C9.18833 31.8461 9.23703 31.8299 9.23703 31.7974C9.23703 31.6838 9.3182 31.5702 9.25326 31.4403C9.20456 31.3429 9.22079 31.2455 9.3182 31.1805C9.35066 31.1481 9.39937 31.1318 9.3669 31.0669C9.30196 30.9857 9.33443 30.937 9.38313 30.8559C9.44807 30.7585 9.48053 30.6448 9.43183 30.5312C9.43183 30.515 9.4156 30.4663 9.43183 30.45C9.5617 30.2227 9.52924 29.9792 9.5617 29.7357C9.57794 29.6708 9.62664 29.6383 9.67534 29.5896C9.57794 29.5409 9.513 29.476 9.57794 29.3461C9.59417 29.3137 9.57794 29.265 9.54547 29.2487C9.513 29.2325 9.48053 29.2325 9.4643 29.265L9.44807 29.2812C9.4156 29.3624 9.26949 29.3461 9.25326 29.4273C9.23703 29.5085 9.28573 29.6059 9.30196 29.687C9.30196 29.7033 9.30196 29.7357 9.30196 29.752C9.13962 29.8656 9.23703 30.0442 9.22079 30.1903C9.22079 30.239 9.22079 30.2877 9.18833 30.3526C9.12339 30.515 9.07469 30.5312 8.92858 30.4825C8.81495 30.4338 8.78248 30.3526 8.83118 30.2065C8.87988 30.0604 8.89612 29.9305 8.89612 29.7844C8.89612 29.6059 8.91235 29.4273 9.05845 29.2974C9.09092 29.2812 9.09092 29.2487 9.07469 29.2163C8.97729 29.0377 9.02599 28.8429 9.05845 28.6481C9.07469 28.5669 9.09092 28.4695 9.09092 28.3883C9.09092 28.2422 9.10716 28.1124 9.20456 28.0149C9.25326 27.9662 9.26949 27.8851 9.26949 27.8039C9.26949 27.674 9.25326 27.5442 9.22079 27.4143C9.20456 27.3818 9.17209 27.3331 9.18833 27.3007C9.23703 27.0734 9.13962 26.8461 9.13962 26.6351C9.13962 26.5052 9.15586 26.4078 9.28573 26.3591C9.35066 26.3429 9.35066 26.2617 9.33443 26.1968C9.3182 26.1156 9.33443 26.0507 9.39937 26.002C9.4643 25.9695 9.4643 25.8883 9.49677 25.8234C9.5617 25.5961 9.62664 25.3688 9.72404 25.1578C9.78898 25.0117 9.82144 24.8656 9.85391 24.7032C9.88638 24.5571 9.93508 24.411 9.96755 24.2649C10 24.0214 10.0974 23.7779 10.065 23.5182C10.0487 23.226 10 22.95 9.98378 22.6578C9.96755 22.4792 9.95132 22.3006 10.0812 22.1383C10.1624 22.0247 10.1299 21.8786 10.0974 21.7649C10.0487 21.6026 10.0487 21.4727 10.1299 21.3428C10.1786 21.2779 10.1948 21.1805 10.2111 21.0831C10.2598 20.8071 10.3085 20.5474 10.3896 20.2876C10.4383 20.1578 10.4546 19.9954 10.4221 19.8331C10.3896 19.7195 10.4059 19.6058 10.4708 19.5084C10.5195 19.4273 10.5195 19.3461 10.5195 19.2487C10.5195 19.0214 10.5195 18.7941 10.5195 18.5669C10.5195 18.5182 10.5195 18.4857 10.5033 18.437C10.4546 18.3071 10.487 18.2097 10.552 18.1123C10.6007 18.0474 10.6169 17.9824 10.6169 17.9013C10.6169 17.7714 10.6169 17.6415 10.6494 17.5117C10.6818 17.3656 10.6818 17.2195 10.6494 17.0896C10.6331 17.0409 10.6169 16.9759 10.6331 16.9272C10.6981 16.5539 10.5682 16.1967 10.552 15.8396C10.5357 15.6772 10.487 15.5474 10.3409 15.4824C10.2922 15.45 10.2598 15.4013 10.2111 15.3526C10.0487 15.1253 9.83768 14.9467 9.57794 14.8331C9.22079 14.6707 8.87988 14.4435 8.55521 14.2162C8.29546 14.0539 8.11689 13.8103 7.92209 13.5668C7.85715 13.5019 7.84092 13.4045 7.88962 13.3233C7.93832 13.2259 7.90585 13.1285 7.85715 13.0474C7.72728 12.7876 7.56494 12.5441 7.43507 12.2681C7.41884 12.2357 7.4026 12.2032 7.37014 12.187C7.27273 12.122 7.24027 12.0084 7.22403 11.8785C7.2078 11.8136 7.2078 11.7324 7.17533 11.6837C7.02923 11.4564 6.98052 11.1805 6.86689 10.937C6.85065 10.8883 6.81819 10.8396 6.80195 10.7909C6.81819 10.5961 6.72078 10.4499 6.59091 10.3363C6.52598 10.2714 6.49351 10.2064 6.46104 10.109C6.39611 9.898 6.26624 9.73566 6.1039 9.62202C6.02273 9.55709 5.95779 9.49215 5.87662 9.42722C5.79546 9.36228 5.74675 9.31358 5.81169 9.19994C5.86039 9.15124 5.84416 9.10254 5.82792 9.05384C5.81169 9.0376 5.79546 9.02137 5.79546 9.00514C5.63312 8.66423 5.64935 8.51812 5.89286 8.25838C5.99026 8.14474 6.08766 8.06357 6.21753 7.96617C6.36364 7.86877 6.37987 7.7876 6.31494 7.57656C6.2987 7.57656 6.28247 7.57656 6.28247 7.57656C6.23377 7.60903 6.18507 7.70643 6.1039 7.6415C6.02273 7.57656 5.90909 7.54409 5.89286 7.39799C5.86039 7.21942 5.89286 7.05708 5.89286 6.87851C5.89286 6.84604 5.90909 6.81357 5.90909 6.79734C6.08766 6.69993 6.0552 6.44019 6.18507 6.29409C6.23377 6.22915 6.21753 6.13175 6.21753 6.05058C6.21753 5.88824 6.23377 5.85577 6.36364 5.83954C6.49351 5.82331 6.55845 5.70967 6.67208 5.6772C6.68832 5.6772 6.72078 5.64473 6.72078 5.61227C6.70455 5.49863 6.73702 5.41746 6.83442 5.35253C6.88312 5.32006 6.86689 5.27136 6.86689 5.22265C6.89936 5.02785 6.94806 4.97915 7.12663 4.96291C7.24027 4.94668 7.32144 4.89798 7.3539 4.76811C7.38637 4.63824 7.48377 4.55707 7.54871 4.44343C7.38637 4.32979 7.38637 4.32979 7.41884 4.11875C7.43507 4.03759 7.43507 3.95642 7.41884 3.87525C7.38637 3.72914 7.38637 3.58304 7.4026 3.4207C7.41884 3.24213 7.41884 3.06356 7.28897 2.88498C7.14286 2.70641 7.17533 2.57654 7.3539 2.43044C7.50001 2.3168 7.50001 2.30057 7.43507 2.10576C7.43507 2.08953 7.41884 2.07329 7.41884 2.05706C7.4026 2.00836 7.4026 1.97589 7.43507 1.94342C7.46754 1.92719 7.50001 1.95966 7.51624 1.97589C7.56494 2.02459 7.59741 2.10576 7.67858 2.15446C7.62988 1.97589 7.72728 1.89472 7.84092 1.79732C7.95455 1.71615 8.00326 1.55381 8.13313 1.48887C8.16559 1.47264 8.18183 1.42394 8.18183 1.37524C8.19806 1.3103 8.19806 1.24537 8.2143 1.1642C8.24676 0.871989 8.4091 0.70965 8.66884 0.70965C8.75001 0.70965 8.81495 0.70965 8.84741 0.612247C8.87988 0.547312 8.94482 0.531078 9.00975 0.547312C9.17209 0.563546 9.3182 0.514844 9.4643 0.417441C9.513 0.384974 9.5617 0.36874 9.61041 0.336272C9.69157 0.303804 9.75651 0.255103 9.80521 0.173934C9.90261 0.0115956 10.0487 -0.0371059 10.1624 0.0278294C10.2922 0.108999 10.3085 0.206402 10.2111 0.320038C10.1786 0.352506 10.1299 0.401207 10.0974 0.417441C10 0.466143 10 0.514844 10.0487 0.612247C10.0812 0.660949 10.0974 0.70965 10.1299 0.774586C10.3247 0.612247 10.5357 0.514844 10.7955 0.482377C10.7468 0.401207 10.6494 0.433675 10.6494 0.336272C10.6494 0.271337 10.6818 0.206402 10.7143 0.173934C10.7792 0.0927647 10.8604 0.0927647 10.9091 0.190168C10.9091 0.206402 10.9253 0.222635 10.9253 0.222635C10.9578 0.449909 11.1039 0.49861 11.2663 0.514844C11.3312 0.531078 11.3799 0.547312 11.4448 0.563546C11.526 0.596013 11.5747 0.644715 11.6072 0.742118C11.6721 0.969391 11.6883 0.953158 11.8831 0.936924C12.0617 0.92069 12.2241 0.904456 12.4026 0.888222C12.5 0.871988 12.5812 0.904456 12.6624 1.00186C12.7922 1.18043 12.9708 1.13173 13.1494 1.09926C13.2468 1.08303 13.328 0.985625 13.4254 1.00186C13.4416 1.00186 13.4578 0.985625 13.4416 0.985625C13.3767 0.936924 13.3929 0.904456 13.4578 0.871988C13.5065 0.839521 13.5552 0.839521 13.6039 0.839521C13.815 0.839521 14.0098 0.839521 14.2208 0.839521C14.2857 0.839521 14.3507 0.839521 14.3994 0.92069C14.3182 1.03433 14.1883 1.00186 14.0422 1.03433C14.1396 1.09926 14.1883 1.14796 14.237 1.22913C14.302 1.32654 14.3507 1.359 14.3994 1.359C14.513 1.359 14.6267 1.44017 14.7241 1.48887C14.9513 1.60251 15.0487 1.78108 15 2.05706C15.0163 2.05706 15.0325 2.07329 15.0325 2.07329C15.1786 1.95965 15.2922 2.04082 15.4383 2.10576C15.6169 2.18693 15.7468 2.33303 15.8929 2.4629C15.9741 2.54407 16.039 2.64148 16.039 2.75511C16.039 2.82005 16.0552 2.86875 16.1202 2.86875C16.3474 2.88498 16.4611 3.09602 16.6072 3.24213C16.6559 3.29083 16.7046 3.3233 16.7695 3.33953C16.9643 3.38823 17.1591 3.372 17.3539 3.33953C17.5974 3.30706 17.8572 3.3233 18.1007 3.45317C18.328 3.58304 18.5877 3.64797 18.7988 3.82655C18.8962 3.90771 18.9936 4.03759 19.1072 4.08629C19.3507 4.19992 19.4481 4.41096 19.4806 4.6707C19.513 4.84928 19.578 5.02785 19.6267 5.20642C19.6591 5.32006 19.7078 5.40123 19.8215 5.43369C19.9189 5.44993 19.9351 5.5311 19.9027 5.61227C19.8702 5.74214 19.854 5.87201 19.7565 5.95318C19.7403 6.00188 19.7403 6.05058 19.7078 6.08305C19.5942 6.13175 19.5293 6.22915 19.4319 6.34279C19.578 6.34279 19.6591 6.29409 19.6754 6.14798C19.6916 6.11552 19.7078 6.09928 19.7078 6.08305ZM10.0163 38.4046C9.88638 38.3072 9.72404 38.226 9.75651 37.9988C9.62664 38.2098 9.87015 38.291 9.85391 38.4695C9.91885 38.4371 9.96755 38.4046 10.0163 38.4046C10.0812 38.5345 10.2111 38.5345 10.3085 38.6156C10.3409 38.6481 10.3734 38.5994 10.3896 38.5507C10.4059 38.4533 10.487 38.3884 10.5033 38.291C10.5033 38.2585 10.5357 38.2098 10.5844 38.2098C10.6331 38.2098 10.6494 38.2585 10.6494 38.291C10.6656 38.4046 10.7143 38.5345 10.6656 38.6481C10.6331 38.713 10.6818 38.713 10.7143 38.7293C10.763 38.7455 10.7792 38.713 10.7792 38.6643C10.7792 38.5994 10.763 38.5345 10.7468 38.4858C10.7305 38.3397 10.7305 38.3072 10.8604 38.2423C10.9091 38.2098 10.9578 38.1936 11.0065 38.1611C11.039 38.1449 11.0552 38.1124 11.039 38.0799C11.0227 38.0475 10.9903 38.0312 10.9578 38.0475C10.9091 38.0475 10.8766 38.0637 10.8279 38.0799C10.7143 38.1124 10.6494 38.0799 10.6007 37.9825C10.552 37.8851 10.5682 37.739 10.6331 37.6741C10.6494 37.6578 10.6981 37.6578 10.6981 37.6091C10.6981 37.5604 10.6656 37.5442 10.6331 37.528C10.552 37.4793 10.5033 37.528 10.487 37.6416C10.4708 37.8364 10.4221 38.0312 10.4059 38.226C10.3896 38.4046 10.3409 38.4371 10.1948 38.4208C10.1299 38.4371 10.0812 38.4208 10.0163 38.4046ZM10.1137 1.09926C9.91885 1.2616 9.91885 1.359 10.0487 1.55381C10.0812 1.58628 10.0974 1.63498 10.1137 1.68368C10.1624 1.76485 10.2273 1.76485 10.276 1.68368C10.3409 1.57004 10.3247 1.45641 10.276 1.359C10.2111 1.2616 10.1624 1.18043 10.1137 1.09926ZM9.82144 37.9176C9.98378 37.9663 10.2111 37.8364 10.2598 37.7065C10.2598 37.6903 10.2598 37.6578 10.2598 37.6416C10.2598 37.6254 10.2435 37.6091 10.2273 37.5929C10.2111 37.5767 10.1948 37.5929 10.1786 37.6091C10.0974 37.7552 9.96755 37.8364 9.82144 37.9176ZM9.59417 37.3981C9.64287 37.4468 9.65911 37.5767 9.72404 37.528C9.83768 37.4468 9.95132 37.463 10.0974 37.4306C9.91885 37.3169 9.75651 37.5117 9.59417 37.3981ZM8.99352 32.528C9.04222 32.463 9.20456 32.5117 9.17209 32.3331C9.15586 32.2357 9.07469 32.2682 9.00975 32.2682C9.02599 32.3656 9.00975 32.4468 8.99352 32.528Z" fill="#9D9D9D"/>
<path fill-rule="evenodd" clip-rule="evenodd" d="M14.8053 36.6351C14.8864 36.7 15.0163 36.6838 15.0488 36.8299C15.0975 36.7974 15.1137 36.7812 15.1462 36.7487C15.2598 36.6513 15.2598 36.6513 15.1624 36.5377C15.1462 36.5215 15.1299 36.489 15.1299 36.4728C15.1137 36.4241 15.1299 36.3754 15.1786 36.3916C15.3572 36.4565 15.5358 36.4078 15.6981 36.3916C15.7631 36.3916 15.8118 36.3754 15.8605 36.3267C15.8767 36.3104 15.9092 36.2942 15.9416 36.2942C16.0877 36.3104 16.2176 36.3916 16.3475 36.4403C16.4286 36.4728 16.4124 36.6513 16.3475 36.7C16.2825 36.7487 16.2176 36.8137 16.1364 36.8299C16.0715 36.8461 16.0066 36.8461 16.0228 36.9435V36.9598C15.8929 36.9273 15.8767 37.1059 15.7631 37.1383C15.617 37.1708 15.617 37.1871 15.5358 37.0409C15.4546 36.8948 15.4384 36.8948 15.3085 36.9922C15.1299 37.1383 15.0812 37.1221 14.9351 36.9435C14.9027 36.8948 14.8702 36.8461 14.8377 36.7974C14.7728 36.765 14.7728 36.765 14.8053 36.6351Z" fill="#9D9D9D"/>
</svg>
